<svg xmlns="http://www.w3.org/2000/svg" width="76.15" height="76.15" viewBox="0 0 76.15 76.15">
  <g id="linkrdin" transform="translate(1 1)">
    <path id="Caminho_8358" data-name="Caminho 8358" d="M67.442,0H6.709A6.709,6.709,0,0,0,0,6.709V67.441A6.709,6.709,0,0,0,6.709,74.15H67.442a6.709,6.709,0,0,0,6.709-6.709V6.709A6.709,6.709,0,0,0,67.442,0ZM22.951,64.027A1.953,1.953,0,0,1,21,65.98H12.685a1.953,1.953,0,0,1-1.953-1.953V29.194a1.953,1.953,0,0,1,1.953-1.953h8.308a1.953,1.953,0,0,1,1.958,1.953ZM16.839,23.959a7.893,7.893,0,1,1,7.893-7.893,7.893,7.893,0,0,1-7.893,7.893ZM66.368,64.184a1.8,1.8,0,0,1-1.8,1.8H55.657a1.8,1.8,0,0,1-1.8-1.8V47.845c0-2.438.706-10.679-6.37-10.679-5.5,0-6.61,5.65-6.834,8.174V64.184a1.8,1.8,0,0,1-1.8,1.8H30.241a1.8,1.8,0,0,1-1.8-1.8V29.037a1.8,1.8,0,0,1,1.8-1.8h8.624a1.8,1.8,0,0,1,1.8,1.8v3.038c2.037-3.056,5.065-5.417,11.513-5.417,14.277,0,14.2,13.338,14.2,20.667V64.184Z" fill="none" stroke="#fffaf5" stroke-width="2"/>
  </g>
</svg>
