<svg xmlns="http://www.w3.org/2000/svg" xmlns:xlink="http://www.w3.org/1999/xlink" width="501.538" height="350.08" viewBox="0 0 501.538 350.08">
  <defs>
    <clipPath id="clip-path">
      <path id="Caminho_6" data-name="Caminho 6" d="M0,210.758H501.538v-350.08H0Z" transform="translate(0 139.322)" fill="none"/>
    </clipPath>
  </defs>
  <g id="Grupo_18" data-name="Grupo 18" style="mix-blend-mode: normal;isolation: isolate">
    <g id="Grupo_6" data-name="Grupo 6" transform="translate(0 0)" clip-path="url(#clip-path)">
      <g id="Grupo_1" data-name="Grupo 1" transform="translate(187.035 87.509)">
        <path id="Caminho_1" data-name="Caminho 1" d="M15.1,30.311a25.174,25.174,0,1,0,0-50.348A25.082,25.082,0,0,0-9.985,5.221,24.939,24.939,0,0,0,15.1,30.311" transform="translate(9.985 20.037)" fill="#0f2b92"/>
      </g>
      <g id="Grupo_2" data-name="Grupo 2" transform="translate(260.59 235.964)">
        <path id="Caminho_2" data-name="Caminho 2" d="M13.99,0A25.3,25.3,0,0,0-9.248,15.491H37.059C33.016,6.568,24.43,0,13.99,0" transform="translate(9.248)" fill="#0f2b92"/>
      </g>
      <g id="Grupo_3" data-name="Grupo 3" transform="translate(392.276 236.132)">
        <path id="Caminho_3" data-name="Caminho 3" d="M15.206,30.311a25.174,25.174,0,1,0,0-50.348,25.174,25.174,0,1,0,0,50.348" transform="translate(10.052 20.037)" fill="#0f2b92"/>
      </g>
      <g id="Grupo_4" data-name="Grupo 4" transform="translate(438.697 99.338)">
        <path id="Caminho_4" data-name="Caminho 4" d="M7.957,0A13.212,13.212,0,0,0-5.26,13.3,13.136,13.136,0,0,0,7.957,26.522,13.261,13.261,0,1,0,7.957,0" transform="translate(5.26)" fill="#0f2b92"/>
      </g>
      <g id="Grupo_5" data-name="Grupo 5" transform="translate(0 0)">
        <path id="Caminho_5" data-name="Caminho 5" d="M204.318,38.289a21.5,21.5,0,0,0-1.41-7.676,38.326,38.326,0,1,0-70.962-27.9c-.5-.033-1-.075-1.508-.075h-28.12A21.494,21.494,0,0,0,83.993,12.888q-3.426-.313-6.933-.312A74.155,74.155,0,0,0,34.793,25.755a21.419,21.419,0,0,0-3.35-2.558L7.2,8.211A21.393,21.393,0,0,0-4.089,5,21.493,21.493,0,0,0-22.4,15.189L-46.71,54.5-71.026,15.189A21.486,21.486,0,0,0-89.334,5a21.392,21.392,0,0,0-11.285,3.216L-124.867,23.2A21.507,21.507,0,0,0-134.49,36.55,21.5,21.5,0,0,0-131.849,52.8l66.412,107.4-18.871,8.43A21.5,21.5,0,0,0-95.229,196.9l47.823,108.945a21.5,21.5,0,0,0,19.69,12.863h.01a21.5,21.5,0,0,0,19.687-12.88l15.328-35,15.325,35a21.508,21.508,0,0,0,19.69,12.878h.008a21.5,21.5,0,0,0,19.69-12.863L77.06,271.59a74.836,74.836,0,0,0,71.535,53.18H152.8a21.5,21.5,0,0,0,21.5-21.5V275.771h13.84a21.4,21.4,0,0,0,6.141,13.169l19.532,19.7A21.51,21.51,0,0,0,229.046,315h.045a21.5,21.5,0,0,0,15.207-6.3l5.435-5.437A74.82,74.82,0,1,0,282.469,161.2q-1.888,0-3.754.09v-9.571c0-.116-.015-.229-.018-.342A21.417,21.417,0,0,0,298.92,133.5a49.26,49.26,0,0,0,17.273,3.362,21.417,21.417,0,0,0,13.963,5.151h14.813a21.5,21.5,0,0,0,21.5-21.5V53.981a21.5,21.5,0,0,0-21.5-21.5H330.156a21.425,21.425,0,0,0-14.069,5.239,49.147,49.147,0,0,0-24.723,7.093,21.4,21.4,0,0,0-13.639-4.882H262.912a21.4,21.4,0,0,0-10.651,2.819l-9.785-11.8a21.5,21.5,0,0,0-38.058,13.725Zm21.6,6.377,36.993,44.619V61.431h11.712a49.453,49.453,0,0,0,3.1,56.228v12.255l-36.99-44.621v27.856H225.92Zm-43.106,91.79h-28.12V38.289h28.12ZM168.838-3.807A16.839,16.839,0,1,1,152,13.031,16.778,16.778,0,0,1,168.838-3.807m-66.52,44.453v-16.5h28.12v126.29h-28.12V134.1a50.38,50.38,0,0,1-25.258,6.568,53.108,53.108,0,0,1-53.21-53.21,53.658,53.658,0,0,1,1.907-14.169L38.426,52.8a21.375,21.375,0,0,0,1.917-3.978A52.906,52.906,0,0,1,77.06,34.08a50.378,50.378,0,0,1,25.258,6.566M-89.314,26.5l42.6,68.869L-4.112,26.5,18.8,40.661A74.814,74.814,0,0,0,6.007,64.339L-46.71,149.591l-66.852-108.1ZM42.331,297.2,7.309,217.221-27.716,297.2-75.539,188.26l25.258-11.282L-27.716,228.5,7.309,148.52,42.331,228.5,64.9,176.977,90.154,188.26l-1.181,2.689a74.359,74.359,0,0,0-13.87,31.6Zm81.511-42.938A25.416,25.416,0,0,0,148.6,275.313H152.8v27.952H148.6a53.106,53.106,0,0,1-53.21-53.21V235.911a53.948,53.948,0,0,1,.5-7.2l11.795-26.871a53.358,53.358,0,0,1,94.3,34.07v15.061l-3.292,3.294ZM282.469,182.7a53.294,53.294,0,1,1-35.528,92.949L229.091,293.5l-19.119-19.283a21.541,21.541,0,0,0,12.431-13.26l6.689-6.689V151.719h28.12v37.55a50.387,50.387,0,0,1,25.258-6.568m62.5-62.19H330.156V111.9a26.52,26.52,0,0,1-13.308,3.46,27.927,27.927,0,0,1-17.619-6.216V65.467a27.842,27.842,0,0,1,17.619-6.254,26.546,26.546,0,0,1,13.308,3.46V53.981h14.813Z" transform="translate(135.064 25.311)" fill="#0f2b92"/>
      </g>
    </g>
    <g id="Grupo_7" data-name="Grupo 7" transform="translate(21.504 51.813)">
      <path id="Caminho_7" data-name="Caminho 7" d="M40.245,41.461l42.6-68.869,24.248,14.986L40.245,95.681-26.6-12.422-2.356-27.408Z" transform="translate(26.604 27.408)" fill="#ffac2d"/>
    </g>
    <g id="Grupo_10" data-name="Grupo 10" transform="translate(0 0)" clip-path="url(#clip-path)">
      <g id="Grupo_8" data-name="Grupo 8" transform="translate(158.915 49.455)">
        <path id="Caminho_8" data-name="Caminho 8" d="M64.169,0V126.288H36.049V109.955a50.378,50.378,0,0,1-25.258,6.566,53.106,53.106,0,0,1-53.21-53.207A53.251,53.251,0,0,1,10.791,9.935,50.378,50.378,0,0,1,36.049,16.5V0ZM-14.3,63.314A24.937,24.937,0,0,0,10.791,88.4,25.08,25.08,0,0,0,36.049,63.314a25.174,25.174,0,1,0-50.348,0" transform="translate(42.419)" fill="#ffac2d"/>
      </g>
      <g id="Grupo_9" data-name="Grupo 9" transform="translate(287.064 21.505)">
        <path id="Caminho_9" data-name="Caminho 9" d="M10.137,20.274A16.78,16.78,0,0,1-6.7,3.436,16.675,16.675,0,0,1,10.137-13.4,16.778,16.778,0,0,1,26.975,3.436,16.886,16.886,0,0,1,10.137,20.274M24.113,126.862H-4.007V28.694h28.12Z" transform="translate(6.701 13.402)" fill="#ffac2d"/>
      </g>
    </g>
    <g id="Grupo_11" data-name="Grupo 11" transform="translate(59.526 173.83)">
      <path id="Caminho_11" data-name="Caminho 11" d="M28.791,48.152,63.813-31.831,98.838,48.152,121.4-3.374,146.661,7.908,98.838,116.853,63.813,36.87,28.791,116.853-19.032,7.908,6.226-3.374Z" transform="translate(19.032 31.831)" fill="#ffac2d"/>
    </g>
    <g id="Grupo_14" data-name="Grupo 14" transform="translate(0 0)" clip-path="url(#clip-path)">
      <g id="Grupo_12" data-name="Grupo 12" transform="translate(230.45 208.012)">
        <path id="Caminho_12" data-name="Caminho 12" d="M32.034,55.755h4.209V83.707H32.034A53.106,53.106,0,0,1-21.176,30.5V16.353a53.294,53.294,0,0,1,106.588,0V34.708H7.281A25.416,25.416,0,0,0,32.034,55.755M32.2-8.905A25.3,25.3,0,0,0,8.964,6.588H55.272C51.229-2.337,42.643-8.905,32.2-8.905" transform="translate(21.176 36.857)" fill="#ffac2d"/>
      </g>
      <g id="Grupo_13" data-name="Grupo 13" transform="translate(344.625 177.031)">
        <path id="Caminho_13" data-name="Caminho 13" d="M43.894,18.652A53.294,53.294,0,1,1,8.364,111.6L-9.484,129.449l-19.532-19.7L-9.484,90.215V-12.33h28.12V25.22a50.354,50.354,0,0,1,25.258-6.568M18.636,72.03A25.258,25.258,0,1,0,43.894,46.772,25.082,25.082,0,0,0,18.636,72.03" transform="translate(29.016 12.33)" fill="#ffac2d"/>
      </g>
    </g>
    <g id="Grupo_15" data-name="Grupo 15" transform="translate(360.984 69.976)">
      <path id="Caminho_15" data-name="Caminho 15" d="M31.188,51.321-5.8,6.7V34.556H-20.617V-33.926L16.376,10.693V-17.161H31.188Z" transform="translate(20.617 33.926)" fill="#ff611e"/>
    </g>
    <g id="Grupo_17" data-name="Grupo 17" transform="translate(0 0)" clip-path="url(#clip-path)">
      <g id="Grupo_16" data-name="Grupo 16" transform="translate(423.882 79.291)">
        <path id="Caminho_16" data-name="Caminho 16" d="M33.805,0V66.53H18.99v-8.6a26.542,26.542,0,0,1-13.3,3.458,27.976,27.976,0,0,1-28.032-28.03A28.054,28.054,0,0,1,5.685,5.234a26.517,26.517,0,0,1,13.3,3.46V0ZM-7.532,33.354A13.137,13.137,0,0,0,5.685,46.571a13.212,13.212,0,0,0,13.3-13.217,13.261,13.261,0,1,0-26.522,0" transform="translate(22.347)" fill="#ff611e"/>
      </g>
    </g>
  </g>
</svg>
