<svg xmlns="http://www.w3.org/2000/svg" width="76.151" height="76.15" viewBox="0 0 76.151 76.15">
  <g id="facebook" transform="translate(1 1)">
    <path id="Caminho_8356" data-name="Caminho 8356" d="M39.393,74.15H4.17A4.154,4.154,0,0,1,0,69.98V4.17A4.154,4.154,0,0,1,4.17,0H69.979A4.154,4.154,0,0,1,74.15,4.17V69.978a4.154,4.154,0,0,1-4.17,4.172h-19V45.417H60.71L62.1,34.295H50.978V26.88c0-3.243.927-5.561,5.561-5.561h6.026V11.587a53.217,53.217,0,0,0-8.806-.464A13.485,13.485,0,0,0,39.392,23.636V34.295H30.123V45.417h9.733Z" transform="translate(0 0)" fill="none" stroke="#fffaf5" stroke-width="2"/>
  </g>
</svg>
