<svg xmlns="http://www.w3.org/2000/svg" width="76.15" height="76.15" viewBox="0 0 76.15 76.15">
  <g id="insta" transform="translate(1 1)">
    <ellipse id="Elipse_1127" data-name="Elipse 1127" cx="15.859" cy="15.859" rx="15.859" ry="15.859" transform="translate(21.216 21.348)" fill="none" stroke="#fffaf5" stroke-width="2"/>
    <path id="Caminho_8357" data-name="Caminho 8357" d="M139.54,98.062a35.63,35.63,0,0,0-1.707-8.842,16.7,16.7,0,0,0-4.188-6.515,18.681,18.681,0,0,0-6.515-4.188,26.266,26.266,0,0,0-8.842-1.707c-4.189-.311-5.431-.311-15.513-.311s-11.324,0-15.513.311a35.629,35.629,0,0,0-8.842,1.707,16.7,16.7,0,0,0-6.515,4.188,18.681,18.681,0,0,0-4.188,6.515,26.267,26.267,0,0,0-1.707,8.842c-.311,3.879-.311,5.273-.311,15.513,0,10.083,0,11.324.311,15.513a35.629,35.629,0,0,0,1.707,8.842,15.118,15.118,0,0,0,4.188,6.515,18.681,18.681,0,0,0,6.515,4.188,26.267,26.267,0,0,0,8.842,1.707c3.884.311,5.273.311,15.513.311s11.324,0,15.513-.311a35.631,35.631,0,0,0,8.842-1.707,16.7,16.7,0,0,0,6.515-4.188,18.681,18.681,0,0,0,4.188-6.515,26.266,26.266,0,0,0,1.707-8.842c.311-3.884.311-5.273.311-15.513C139.85,103.492,139.85,102.251,139.54,98.062Zm-36.764,34.757a19.081,19.081,0,1,1,19.081-19.088,19.081,19.081,0,0,1-19.081,19.088Zm19.856-34.6a4.5,4.5,0,1,1,0-9,4.716,4.716,0,0,1,4.5,4.5,4.6,4.6,0,0,1-4.5,4.506Z" transform="translate(-65.7 -76.5)" fill="none" stroke="#fffaf5" stroke-width="2"/>
  </g>
</svg>
