<svg xmlns="http://www.w3.org/2000/svg" xmlns:xlink="http://www.w3.org/1999/xlink" width="77.798" height="54.304" viewBox="0 0 77.798 54.304">
  <defs>
    <clipPath id="clip-path">
      <path id="Caminho_6" data-name="Caminho 6" d="M0-85.018H77.8v-54.3H0Z" transform="translate(0 139.322)" fill="none"/>
    </clipPath>
  </defs>
  <g id="Grupo_7791" data-name="Grupo 7791" style="mix-blend-mode: normal;isolation: isolate">
    <g id="Grupo_6" data-name="Grupo 6" transform="translate(0 0)" clip-path="url(#clip-path)">
      <g id="Grupo_1" data-name="Grupo 1" transform="translate(29.013 13.574)">
        <path id="Caminho_1" data-name="Caminho 1" d="M-6.093-12.227a3.891,3.891,0,0,0,3.918-3.892,3.913,3.913,0,0,0-3.918-3.918,3.891,3.891,0,0,0-3.892,3.918,3.868,3.868,0,0,0,3.892,3.892" transform="translate(9.985 20.037)" fill="#0f2b92"/>
      </g>
      <g id="Grupo_2" data-name="Grupo 2" transform="translate(40.423 36.603)">
        <path id="Caminho_2" data-name="Caminho 2" d="M-5.643,0a3.925,3.925,0,0,0-3.6,2.4h7.183A3.957,3.957,0,0,0-5.643,0" transform="translate(9.248)" fill="#0f2b92"/>
      </g>
      <g id="Grupo_3" data-name="Grupo 3" transform="translate(60.85 36.629)">
        <path id="Caminho_3" data-name="Caminho 3" d="M-6.134-12.227a3.891,3.891,0,0,0,3.918-3.892,3.913,3.913,0,0,0-3.918-3.918,3.913,3.913,0,0,0-3.918,3.918,3.891,3.891,0,0,0,3.918,3.892" transform="translate(10.052 20.037)" fill="#0f2b92"/>
      </g>
      <g id="Grupo_4" data-name="Grupo 4" transform="translate(68.051 15.409)">
        <path id="Caminho_4" data-name="Caminho 4" d="M-3.21,0A2.049,2.049,0,0,0-5.26,2.064a2.038,2.038,0,0,0,2.05,2.05,2.049,2.049,0,0,0,2.064-2.05A2.061,2.061,0,0,0-3.21,0" transform="translate(5.26)" fill="#0f2b92"/>
      </g>
      <g id="Grupo_5" data-name="Grupo 5" transform="translate(0 0)">
        <path id="Caminho_5" data-name="Caminho 5" d="M-82.42-15.445a3.335,3.335,0,0,0-.219-1.191,5.913,5.913,0,0,0,.663-2.727,5.954,5.954,0,0,0-5.948-5.948,5.954,5.954,0,0,0-5.723,4.348c-.078-.005-.155-.012-.234-.012h-4.362a3.334,3.334,0,0,0-2.843,1.59q-.531-.049-1.075-.048a11.5,11.5,0,0,0-6.556,2.044,3.323,3.323,0,0,0-.52-.4L-113-20.111a3.318,3.318,0,0,0-1.75-.5,3.334,3.334,0,0,0-2.84,1.581l-3.771,6.1-3.772-6.1a3.333,3.333,0,0,0-2.84-1.581,3.318,3.318,0,0,0-1.75.5l-3.761,2.325a3.336,3.336,0,0,0-1.493,2.071,3.336,3.336,0,0,0,.41,2.52l10.3,16.659-2.927,1.308a3.335,3.335,0,0,0-1.694,4.386l7.418,16.9a3.336,3.336,0,0,0,3.054,2h0a3.335,3.335,0,0,0,3.054-2l2.378-5.429,2.377,5.429a3.336,3.336,0,0,0,3.054,2h0a3.336,3.336,0,0,0,3.054-2l2.333-5.314a11.609,11.609,0,0,0,11.1,8.249h.653a3.335,3.335,0,0,0,3.336-3.336V21.393h2.147a3.319,3.319,0,0,0,.953,2.043l3.03,3.056a3.337,3.337,0,0,0,2.362.987h.007a3.336,3.336,0,0,0,2.359-.977l.843-.843A11.566,11.566,0,0,0-70.3,26.825,11.629,11.629,0,0,0-58.681,15.21,11.616,11.616,0,0,0-70.3,3.621q-.293,0-.582.014V2.15c0-.018,0-.035,0-.053a3.338,3.338,0,0,0,.981-.192A3.335,3.335,0,0,0-67.745-.676a7.641,7.641,0,0,0,2.679.522,3.322,3.322,0,0,0,2.166.8h2.3a3.336,3.336,0,0,0,3.336-3.336v-10.32A3.335,3.335,0,0,0-60.6-16.347h-2.3a3.323,3.323,0,0,0-2.182.813,7.624,7.624,0,0,0-3.835,1.1,3.32,3.32,0,0,0-2.116-.757h-2.3a3.32,3.32,0,0,0-1.652.437L-76.5-16.585a3.336,3.336,0,0,0-2.569-1.207,3.337,3.337,0,0,0-1.131.2,3.336,3.336,0,0,0-2.2,3.138Zm3.351.989,5.738,6.921v-4.321h1.817a7.657,7.657,0,0,0-1.134,4.018,7.643,7.643,0,0,0,1.615,4.7v1.9l-5.738-6.922v4.321h-2.3ZM-85.755-.218h-4.362V-15.445h4.362Zm-2.168-21.758a2.6,2.6,0,0,1,2.612,2.612,2.62,2.62,0,0,1-2.612,2.612,2.6,2.6,0,0,1-2.612-2.612,2.587,2.587,0,0,1,2.612-2.612m-10.319,6.9v-2.56h4.362V1.951h-4.362V-.583A7.815,7.815,0,0,1-102.16.436a8.238,8.238,0,0,1-8.254-8.254,8.323,8.323,0,0,1,.3-2.2l1.965-3.179a3.317,3.317,0,0,0,.3-.617,8.207,8.207,0,0,1,5.7-2.286,7.815,7.815,0,0,1,3.918,1.018m-29.726-2.194,6.609,10.683,6.608-10.683,3.554,2.2a11.605,11.605,0,0,0-1.984,3.673L-121.359,1.82l-10.37-16.769Zm20.421,41.991-5.433-12.407-5.433,12.407-7.418-16.9,3.918-1.75,3.5,7.993,5.433-12.407,5.433,12.407,3.5-7.993,3.918,1.75-.183.417a11.535,11.535,0,0,0-2.152,4.9Zm12.644-6.66a3.942,3.942,0,0,0,3.84,3.265h.653v4.336h-.653A8.238,8.238,0,0,1-99.317,17.4V15.21a8.369,8.369,0,0,1,.077-1.117l1.83-4.168a8.231,8.231,0,0,1,6.348-2.969,8.26,8.26,0,0,1,8.28,8.254v2.336l-.511.511ZM-70.3,6.956a8.26,8.26,0,0,1,8.28,8.254,8.283,8.283,0,0,1-8.28,8.28,8.212,8.212,0,0,1-5.511-2.116l-2.769,2.769-2.966-2.991a3.341,3.341,0,0,0,1.928-2.057l1.038-1.038V2.15h4.362V7.975A7.816,7.816,0,0,1-70.3,6.956M-60.6-2.691h-2.3V-4.026a4.114,4.114,0,0,1-2.064.537A4.332,4.332,0,0,1-67.7-4.454V-11.23a4.319,4.319,0,0,1,2.733-.97,4.118,4.118,0,0,1,2.064.537v-1.348h2.3Z" transform="translate(135.064 25.311)" fill="#0f2b92"/>
      </g>
    </g>
    <g id="Grupo_7" data-name="Grupo 7" transform="translate(3.336 8.037)">
      <path id="Caminho_7" data-name="Caminho 7" d="M-16.234-16.725l6.608-10.683,3.761,2.325L-16.234-8.314-26.6-25.083l3.761-2.325Z" transform="translate(26.604 27.408)" fill="#ffac2d"/>
    </g>
    <g id="Grupo_10" data-name="Grupo 10" transform="translate(0 0)" clip-path="url(#clip-path)">
      <g id="Grupo_8" data-name="Grupo 8" transform="translate(24.651 7.671)">
        <path id="Caminho_8" data-name="Caminho 8" d="M-25.885,0V19.59h-4.362V17.056a7.815,7.815,0,0,1-3.918,1.018,8.238,8.238,0,0,1-8.254-8.254,8.26,8.26,0,0,1,8.254-8.28A7.815,7.815,0,0,1-30.247,2.56V0ZM-38.057,9.821a3.868,3.868,0,0,0,3.892,3.892,3.89,3.89,0,0,0,3.918-3.892A3.913,3.913,0,0,0-34.165,5.9a3.891,3.891,0,0,0-3.892,3.918" transform="translate(42.419)" fill="#ffac2d"/>
      </g>
      <g id="Grupo_9" data-name="Grupo 9" transform="translate(44.529 3.336)">
        <path id="Caminho_9" data-name="Caminho 9" d="M-4.089-8.178A2.6,2.6,0,0,1-6.7-10.79,2.587,2.587,0,0,1-4.089-13.4,2.6,2.6,0,0,1-1.477-10.79,2.619,2.619,0,0,1-4.089-8.178M-1.921,8.356H-6.283V-6.872h4.362Z" transform="translate(6.701 13.402)" fill="#ffac2d"/>
      </g>
    </g>
    <g id="Grupo_11" data-name="Grupo 11" transform="translate(9.234 26.964)">
      <path id="Caminho_11" data-name="Caminho 11" d="M-11.614-19.424l5.433-12.407L-.748-19.424l3.5-7.993,3.918,1.75L-.748-8.767-6.181-21.174-11.614-8.767l-7.418-16.9,3.918-1.75Z" transform="translate(19.032 31.831)" fill="#ffac2d"/>
    </g>
    <g id="Grupo_14" data-name="Grupo 14" transform="translate(0 0)" clip-path="url(#clip-path)">
      <g id="Grupo_12" data-name="Grupo 12" transform="translate(35.747 32.267)">
        <path id="Caminho_12" data-name="Caminho 12" d="M-12.922-22.491h.653v4.336h-.653a8.238,8.238,0,0,1-8.254-8.254V-28.6a8.238,8.238,0,0,1,8.254-8.254A8.26,8.26,0,0,1-4.642-28.6v2.847h-12.12a3.942,3.942,0,0,0,3.84,3.265m.026-10.03a3.924,3.924,0,0,0-3.6,2.4h7.183a3.957,3.957,0,0,0-3.579-2.4" transform="translate(21.176 36.857)" fill="#ffac2d"/>
      </g>
      <g id="Grupo_13" data-name="Grupo 13" transform="translate(53.458 27.461)">
        <path id="Caminho_13" data-name="Caminho 13" d="M-17.706-7.524A8.26,8.26,0,0,1-9.426.73a8.283,8.283,0,0,1-8.28,8.28,8.213,8.213,0,0,1-5.511-2.116l-2.769,2.769-3.03-3.056,3.03-3.03V-12.33h4.362v5.825a7.811,7.811,0,0,1,3.918-1.019M-21.624.756a3.891,3.891,0,0,0,3.918,3.892A3.891,3.891,0,0,0-13.788.756a3.913,3.913,0,0,0-3.918-3.918A3.913,3.913,0,0,0-21.624.756" transform="translate(29.016 12.33)" fill="#ffac2d"/>
      </g>
    </g>
    <g id="Grupo_15" data-name="Grupo 15" transform="translate(55.996 10.855)">
      <path id="Caminho_15" data-name="Caminho 15" d="M-12.581-20.7l-5.738-6.921V-23.3h-2.3V-33.926L-14.879-27v-4.321h2.3Z" transform="translate(20.617 33.926)" fill="#ff611e"/>
    </g>
    <g id="Grupo_17" data-name="Grupo 17" transform="translate(0 0)" clip-path="url(#clip-path)">
      <g id="Grupo_16" data-name="Grupo 16" transform="translate(65.752 12.3)">
        <path id="Caminho_16" data-name="Caminho 16" d="M-13.637,0V10.32h-2.3V8.986A4.117,4.117,0,0,1-18,9.522a4.34,4.34,0,0,1-4.348-4.348A4.352,4.352,0,0,1-18,.812a4.113,4.113,0,0,1,2.064.537V0Zm-6.412,5.174A2.038,2.038,0,0,0-18,7.224a2.049,2.049,0,0,0,2.064-2.05A2.061,2.061,0,0,0-18,3.11a2.05,2.05,0,0,0-2.05,2.064" transform="translate(22.347)" fill="#ff611e"/>
      </g>
    </g>
  </g>
</svg>
