<svg xmlns="http://www.w3.org/2000/svg" width="120" height="120" viewBox="0 0 120 120">
  <g id="Grupo_11148" data-name="Grupo 11148" transform="translate(-2935 -4534)">
    <g id="Elipse_1126" data-name="Elipse 1126" transform="translate(2935 4534)" fill="#fde7a9" stroke="#ffac2d" stroke-width="6" stroke-dasharray="2 6">
      <circle cx="60" cy="60" r="60" stroke="none"/>
      <circle cx="60" cy="60" r="57" fill="none"/>
    </g>
    <g id="Grupo_7855" data-name="Grupo 7855" transform="translate(2964.795 4568.042)">
      <path id="Caminho_8352" data-name="Caminho 8352" d="M241.916,5.492A4.708,4.708,0,0,0,246.61.8V-2.676a4.722,4.722,0,0,0-3.755-4.6c.939-2.723.376-3.567-.563-4.6a3.7,3.7,0,0,1-1.127-3.1h-1.408a4.942,4.942,0,0,0,1.5,4.037c.657.657,1.033,1.127.094,3.567a4.767,4.767,0,0,0-4.225,4.694V.8A4.853,4.853,0,0,0,241.916,5.492ZM238.63-2.769a3.326,3.326,0,0,1,3.286-3.286A3.326,3.326,0,0,1,245.2-2.769V.7a3.286,3.286,0,1,1-6.572,0Z" transform="translate(-190.281 30.746)" fill="#0f2b92"/>
      <rect id="Retângulo_8001" data-name="Retângulo 8001" width="1.408" height="1.69" transform="translate(50.978 26.381)" fill="#0f2b92"/>
      <path id="Caminho_8353" data-name="Caminho 8353" d="M203.428-12.953H226.9V-27.974h-23.47Zm1.408-1.408v-.376l4.788-4.506,2.441,2.253,3.286-3.661,5.727,5.445,2.347-2.159,2.065,1.971v1.127H204.836Zm20.654-12.2v9.2l-2.065-1.972-2.347,2.159-5.821-5.445-3.286,3.661-2.347-2.159-4.788,4.506v-9.951Z" transform="translate(-188.219 31.541)" fill="#0f2b92"/>
      <path id="Caminho_8354" data-name="Caminho 8354" d="M222.181-20.468a2.284,2.284,0,0,0,2.253-2.253,2.284,2.284,0,0,0-2.253-2.253,2.285,2.285,0,0,0-2.253,2.253A2.224,2.224,0,0,0,222.181-20.468Zm0-3a.841.841,0,0,1,.845.845.841.841,0,0,1-.845.845.841.841,0,0,1-.845-.845A.841.841,0,0,1,222.181-23.472Z" transform="translate(-189.229 31.358)" fill="#0f2b92"/>
      <rect id="Retângulo_8002" data-name="Retângulo 8002" width="23.47" height="1.408" transform="translate(15.209 21.124)" fill="#0f2b92"/>
      <rect id="Retângulo_8003" data-name="Retângulo 8003" width="23.47" height="1.408" transform="translate(15.209 25.254)" fill="#0f2b92"/>
      <rect id="Retângulo_8004" data-name="Retângulo 8004" width="16.805" height="1.408" transform="translate(18.495 29.385)" fill="#0f2b92"/>
      <path id="Caminho_8355" data-name="Caminho 8355" d="M248.72,12.819V-27.455H229.474v-4.319H198.869v4.319H187.228V12.819H209.2v5.915h-3.474v1.408h24.691V18.734H226.94V12.819ZM200.277-30.366h27.789V2.023H200.277Zm-1.408,4.319V2.023h-1.784V3.431h34.173V2.023h-1.784v-28.07h17.837V7H188.636V-26.047ZM188.636,11.411v-3h58.676v3Zm36.707,7.229H210.51V12.726h14.833Z" transform="translate(-187.228 31.774)" fill="#0f2b92"/>
    </g>
  </g>
</svg>
