<svg xmlns="http://www.w3.org/2000/svg" width="76.15" height="76.15" viewBox="0 0 76.15 76.15">
  <g id="youtub" transform="translate(1 1)">
    <path id="Caminho_8360" data-name="Caminho 8360" d="M74.15,74.15H0V0H74.15ZM37.075,19.7c-.154,0-15.471.012-19.279,1.043a6.2,6.2,0,0,0-4.359,4.384,65.559,65.559,0,0,0-1.029,11.952,65.5,65.5,0,0,0,1.028,11.949A6.2,6.2,0,0,0,17.8,53.415c3.808,1.024,19.126,1.036,19.279,1.036s15.473-.012,19.274-1.036a6.2,6.2,0,0,0,4.363-4.391,65.5,65.5,0,0,0,1.029-11.949,65.559,65.559,0,0,0-1.028-11.956,6.2,6.2,0,0,0-4.363-4.384C52.551,19.708,37.232,19.7,37.075,19.7ZM32.029,44.413V29.74l12.9,7.336-12.888,7.33Z" fill="none" stroke="#fffaf5" stroke-width="2"/>
  </g>
</svg>
